<?xml version="1.0" encoding="utf-8"?>
<!-- Generator: Adobe Illustrator 19.2.1, SVG Export Plug-In . SVG Version: 6.00 Build 0)  -->
<svg version="1.1" id="Слой_1" xmlns="http://www.w3.org/2000/svg" xmlns:xlink="http://www.w3.org/1999/xlink" x="0px" y="0px"
	 viewBox="0 0 85 44" style="enable-background:new 0 0 85 44;" xml:space="preserve">
<style type="text/css">
	.st0{fill:#574E4F;}
</style>
<g>
	<g>
		<g>
			<g>
				<path class="st0" d="M18.6,43.3v-2.9h0.6c0.4,0,0.8,0.1,1.1,0.4c0.3,0.3,0.4,0.6,0.4,1c0,0.4-0.1,0.8-0.4,1
					c-0.3,0.3-0.6,0.4-1.1,0.4H18.6z M19.2,43c0.3,0,0.6-0.1,0.8-0.3c0.2-0.2,0.3-0.5,0.3-0.8c0-0.3-0.1-0.6-0.3-0.8
					c-0.2-0.2-0.5-0.3-0.8-0.3H19V43H19.2z"/>
				<polygon class="st0" points="22.7,40.4 24.2,40.4 24.3,40.7 23.1,40.7 23.1,41.6 24.2,41.6 24.2,41.9 23.1,41.9 23.1,42.9 
					24.6,42.9 24.5,43.3 22.7,43.3 				"/>
				<polygon class="st0" points="28.9,43.3 27,41.2 27,43.2 26.6,43.3 26.6,40.4 28.6,42.5 28.6,40.4 28.9,40.4 				"/>
				<polygon class="st0" points="31,40.7 31.1,40.4 32.8,40.4 32.8,40.7 32.1,40.7 32.1,43.2 31.7,43.3 31.7,40.7 				"/>
				<path class="st0" d="M36.3,40.3l1.4,2.9l-0.3,0.1l-0.5-1h-1.2l-0.5,1l-0.3-0.1L36.3,40.3z M36.3,41.1l-0.5,0.9h0.9L36.3,41.1z"
					/>
				<polygon class="st0" points="40.2,40.4 40.2,43 41.5,43 41.4,43.3 39.8,43.3 39.8,40.4 				"/>
				<path class="st0" d="M47.3,42.7c0.2,0.2,0.5,0.3,0.8,0.3c0.1,0,0.2,0,0.3,0c0.1,0,0.2-0.1,0.3-0.2l-0.1,0.4
					c-0.1,0-0.2,0.1-0.3,0.1c-0.1,0-0.2,0-0.3,0c-0.4,0-0.8-0.1-1.1-0.4c-0.3-0.3-0.4-0.7-0.4-1.1c0-0.4,0.1-0.8,0.4-1.1
					c0.3-0.3,0.7-0.4,1.1-0.4c0.1,0,0.1,0,0.2,0c0.1,0,0.2,0,0.2,0l0.1,0.4c0,0-0.1-0.1-0.2-0.1c-0.1,0-0.2,0-0.3,0
					c-0.3,0-0.6,0.1-0.8,0.3c-0.2,0.2-0.3,0.5-0.3,0.8C47,42.2,47.1,42.4,47.3,42.7"/>
				<polygon class="st0" points="51.2,40.4 51.2,43 52.5,43 52.4,43.3 50.9,43.3 50.9,40.4 				"/>
				<polygon class="st0" points="55.1,40.4 55.1,43.2 54.7,43.3 54.7,40.4 				"/>
				<polygon class="st0" points="59.5,43.3 57.6,41.2 57.6,43.2 57.2,43.3 57.2,40.4 59.2,42.5 59.2,40.4 59.5,40.4 				"/>
				<polygon class="st0" points="62.1,40.4 62.1,43.2 61.7,43.3 61.7,40.4 				"/>
				<path class="st0" d="M64.9,42.7c0.2,0.2,0.5,0.3,0.8,0.3c0.1,0,0.2,0,0.3,0c0.1,0,0.2-0.1,0.3-0.2l-0.1,0.4
					c-0.1,0-0.2,0.1-0.3,0.1c-0.1,0-0.2,0-0.3,0c-0.4,0-0.8-0.1-1.1-0.4c-0.3-0.3-0.4-0.7-0.4-1.1c0-0.4,0.2-0.8,0.4-1.1
					c0.3-0.3,0.6-0.4,1.1-0.4c0.1,0,0.1,0,0.2,0c0.1,0,0.2,0,0.2,0l0.1,0.4c0,0-0.1-0.1-0.2-0.1c-0.1,0-0.2,0-0.3,0
					c-0.3,0-0.6,0.1-0.8,0.3c-0.2,0.2-0.3,0.5-0.3,0.8C64.6,42.2,64.7,42.4,64.9,42.7"/>
			</g>
			<g>
				<path class="st0" d="M52.5,29.2c0,2.6-1.9,5.6-5.5,5.6c-3.6,0-5.5-3-5.5-5.6c0-2.6,1.9-5.6,5.5-5.6
					C50.6,23.6,52.5,26.6,52.5,29.2 M43,29.2c0,3.2,1.8,5,4,5c2.1,0,4-1.8,4-5c0-3.2-1.8-5-4-5C44.8,24.2,43,26,43,29.2"/>
				<path class="st0" d="M83.9,29.2c0,2.6-1.9,5.6-5.5,5.6c-3.6,0-5.5-3-5.5-5.6c0-2.6,1.9-5.6,5.5-5.6C82,23.6,83.9,26.6,83.9,29.2
					 M74.4,29.2c0,3.2,1.8,5,4,5c2.1,0,4-1.8,4-5c0-3.2-1.8-5-4-5C76.2,24.2,74.4,26,74.4,29.2"/>
				<path class="st0" d="M67.1,24.6l-4,8.2H63l-3.4-7.2c-0.7-1.7-1.4-1.9-2.5-1.9h-0.8h0v0.3c0.6,0,1.1,0.2,1.4,0.9l4.7,10h0.4
					l4.9-9.9c0.4-0.8,0.8-0.9,1.4-0.9v-0.3h-0.4C68,23.6,67.5,23.8,67.1,24.6"/>
				<path class="st0" d="M3.6,24.4c0-0.5-0.3-0.7-0.7-0.7c-0.4,0-1.7,0-1.7,0v0.3c0.7,0.1,1.1,0.6,1.1,1.3v7.1
					c0,1.4,0.3,2.5,0.3,2.5h0.9c0,0,0.2-1.2,0.2-2.5C3.6,32.3,3.6,24.8,3.6,24.4"/>
				<path class="st0" d="M19.1,23.6c0,0-0.3,1.2-0.3,2.5v6h0c0,0-5.4-6.8-5.9-7.5c-0.6-0.7-1.2-1-1.9-1H9.6v0.3
					c0.9,0,1.1,0.8,1.1,1.3l0,9.5h0.3c0,0,0.3-1.2,0.3-2.5v-7.1h0.1l7.6,9.6h0.5V23.6H19.1z"/>
				<path class="st0" d="M35.4,23.6H35c0,0-0.3,1.2-0.3,2.5v6h0c0,0-5.4-6.8-5.9-7.5c-0.6-0.7-1.2-1-1.9-1h-1.3v0.3
					c0.9,0,1.1,0.6,1.1,1.3v9.5H27c0,0,0.3-1.2,0.3-2.5v-7.1h0.1l7.6,9.6h0.5V23.6z"/>
			</g>
		</g>
		<g>
			<path class="st0" d="M38.2,9.4l0-0.1c0-0.6,0.9-1.2,0.9-1.2l3-2.4l3.3-2.5c1-0.7,0.9-1.5,0.9-1.5l0-1.2h-0.4l0,0.1
				C45.9,1.4,45,2,45,2l-3,2.4l-3.3,2.5c-0.9,0.7-0.9,1.5-0.9,1.5l0,1.2H38.2z"/>
			<path class="st0" d="M45.9,5.6c0,0.6-0.9,1.2-0.9,1.2l-3,2.4l-3.3,2.5c-0.9,0.7-0.9,1.5-0.9,1.5l0,1.2h0.4l0-0.1
				c0-0.6,0.9-1.2,0.9-1.2l3-2.4l3.3-2.5c1-0.7,0.9-1.5,0.9-1.5l0-1.2h-0.4L45.9,5.6z"/>
			<path class="st0" d="M45.9,10.4l0,0.1c0,0.6-0.9,1.2-0.9,1.2l-3,2.4l-3.3,2.5c-0.9,0.7-0.9,1.5-0.9,1.5l0,1.2h0.4l0-0.1
				c0-0.6,0.9-1.2,0.9-1.2l3-2.4l3.3-2.5c1-0.7,0.9-1.5,0.9-1.5l0-1.2H45.9z"/>
		</g>
	</g>
</g>
</svg>
