<?xml version="1.0" encoding="utf-8"?>
<!-- Generator: Adobe Illustrator 19.0.0, SVG Export Plug-In . SVG Version: 6.00 Build 0)  -->
<svg version="1.1" id="Layer_1" xmlns="http://www.w3.org/2000/svg" xmlns:xlink="http://www.w3.org/1999/xlink" x="0px" y="0px"
	 viewBox="0 0 512 512" style="enable-background:new 0 0 512 512;" xml:space="preserve">
<style type="text/css">
	.st0{fill:#847876;}
</style>
<g id="XMLID_18_">
	<g id="XMLID_67_">
		<g id="XMLID_68_">
			<path id="XMLID_71_" class="st0" d="M151.3,243.1l-0.1-3.2c-0.5-16.4,24-33.3,24.4-33.7l82.7-65l90.5-68
				c26.3-19.4,24.7-40.6,24.7-41.2l0-32h-11.8l0.1,3.1c0.4,16.4-24.2,33.3-24.6,33.7l-82.7,65.1l-90.6,68
				c-26,19.5-24.4,40.7-24.4,41.2l0,31.9H151.3z"/>
			<path id="XMLID_70_" class="st0" d="M361.8,137.7c0.4,16.3-24.1,33.2-24.6,33.6l-82.7,65.1l-90.6,68
				c-26,19.5-24.4,40.6-24.4,41.2l0,31.9h11.9l-0.1-3.3c-0.5-16.3,24-33.3,24.4-33.5l82.7-65.1l90.5-68
				c26.3-19.5,24.7-40.7,24.7-41.2l0-31.9h-11.8L361.8,137.7z"/>
			<path id="XMLID_69_" class="st0" d="M361.7,268.8l0.1,3.2c0.4,16.4-24.2,33.3-24.6,33.7l-82.7,65.1l-90.6,68
				c-26,19.5-24.4,40.6-24.4,41.2l0,32h11.9l-0.1-3.2c-0.5-16.3,24-33.3,24.4-33.6l82.7-65.1l90.5-68.1
				c26.3-19.4,24.7-40.5,24.7-41.2l0-31.9H361.7z"/>
		</g>
	</g>
</g>
</svg>
